<svg viewBox="127.814 51.079 4.479 4.479" width="4.479" height="4.479" xmlns="http://www.w3.org/2000/svg"><g transform="translate(-1.017 11.002)"><path style="fill:#000;stroke:#000;stroke-width:.121;stroke-dasharray:none" d="M131.051 40.656a1.696 1.696 0 0 0-1.696 1.697 1.7 1.7 0 0 0 1.078 1.58c.117-.192.344-.303.604-.303.262 0 .49.117.606.313a1.7 1.7 0 0 0 1.105-1.59 1.696 1.696 0 0 0-1.697-1.697z"/><circle style="fill:#000;stroke:#fff;stroke-width:.121;stroke-dasharray:none" cx="131.045" cy="41.291" r=".193"/><circle style="fill:#000;stroke:#fff;stroke-width:.121;stroke-dasharray:none" cx="131.806" cy="41.595" r=".193"/><circle style="fill:#000;stroke:#fff;stroke-width:.121;stroke-dasharray:none" cx="132.11" cy="42.356" r=".193"/><circle style="fill:#000;stroke:#fff;stroke-width:.121;stroke-dasharray:none" cx="129.98" cy="42.356" r=".193"/><circle style="fill:#000;stroke:#fff;stroke-width:.121;stroke-dasharray:none" cx="130.284" cy="41.595" r=".193"/></g></svg>