<svg viewBox="122.753 51.079 4.479 4.479" width="4.479" height="4.479" xmlns="http://www.w3.org/2000/svg"><g transform="translate(-.102 .102)"><path style="fill:none;stroke:#000;stroke-width:.120731;stroke-dasharray:none" d="M125.928 53.847c-.092-.088-.075-.034-.075-.034-.066-.03-.023-.06-.074-.11l-.951-.952c-.051-.051-.04-.145-.09-.094l-.196.195c-.052.051.043.04.094.09l.951.952c.05.05.077.013.108.077 0 0-.045-.012.035.074s.13.157.26.213.253.016.156-.155c-.098-.17-.127-.169-.218-.256z"/><rect style="fill:#000;stroke:#000;stroke-width:.0453115;-inkscape-stroke:none" width="1.091" height=".624" x="124.824" y="-51.144" ry=".044" transform="rotate(45)"/><rect style="fill:#000;stroke:#000;stroke-width:.0466633;-inkscape-stroke:none" width=".095" height=".301" x="126.803" y="-50.984" ry=".023" transform="rotate(45)"/><rect style="fill:#000;stroke:#000;stroke-width:.0466633;-inkscape-stroke:none" width=".095" height=".301" x="126.433" y="-50.984" ry=".023" transform="rotate(45)"/></g></svg>