<svg viewBox="117.692 51.079 4.479 4.479" width="4.479" height="4.479" xmlns="http://www.w3.org/2000/svg"><g transform="translate(-.068 .034)"><path style="fill:none;stroke:#000;stroke-width:.120731;stroke-dasharray:none" d="M120.812 53.936c-.092-.088-.075-.034-.075-.034-.066-.03-.023-.06-.074-.11l-.951-.952c-.051-.051-.04-.145-.09-.094l-.196.195c-.052.051.043.04.094.09l.951.952c.05.05.077.013.108.077 0 0-.045-.012.035.074s.13.157.26.213.254.016.156-.155-.127-.169-.218-.256z"/><rect style="fill:#000;stroke:#000;stroke-width:.0453115;-inkscape-stroke:none" width="1.091" height=".624" x="121.27" y="-47.463" ry=".044" transform="rotate(45)"/><rect style="fill:#000;stroke:#000;stroke-width:.0466633;-inkscape-stroke:none" width=".095" height=".301" x="123.258" y="-47.31" ry=".023" transform="rotate(45)"/></g></svg>