<svg viewBox="132.875 46.018 4.479 4.479" width="4.479" height="4.479" xmlns="http://www.w3.org/2000/svg"><path style="fill:#000;stroke:#090909;stroke-width:.15;stroke-dasharray:none" d="M134.136 47.176c.172-.027.367-.002.542-.002h1.094c.184 0 .443-.051.581.097.124.131.086.34.086.507 0 .419.019.842 0 1.26-.006.144-.087.283-.239.313-.18.037-.387.012-.57.012h-1.1c-.18 0-.448.048-.58-.103-.115-.131-.076-.344-.076-.507v-.872c0-.144-.014-.296 0-.44a.31.31 0 0 1 .261-.265" transform="translate(-31.925 -11.389)scale(1.23595)"/><path d="M134.165 47.46c.01-.009.025-.006.037-.006h1.944c.012 0 .025-.003.036.006.016.011.015.037.015.056v.941c0 .058.002.125 0 .183 0 .018 0 .04-.015.052-.018.017-.042.01-.07.01h-.257c-.025 0-.048-.007-.065.006-.013.01-.01.032-.01.046 0 .033.003.12 0 .148-.005.04-.021.04-.056.04h-.085c-.02 0-.052-.005-.063.009-.009.012-.006.028-.006.042v.114c0 .022.002.052-.01.065-.011.011-.025.009-.041.01h-.587c-.05 0-.133.016-.175-.004-.016-.008-.013-.032-.013-.048 0-.04.005-.126-.001-.16-.006-.037-.027-.028-.056-.028h-.08c-.023 0-.044.006-.06-.01-.013-.013-.008-.039-.008-.059v-.12c0-.014 0-.034-.015-.045s-.033-.006-.054-.006h-.205c-.037 0-.061.01-.09-.004-.024-.01-.018-.038-.018-.058v-1.13c0-.016-.005-.04.009-.051" style="fill:#fff;stroke:#090909;stroke-width:.15;stroke-dasharray:none" transform="translate(-31.925 -11.389)scale(1.23595)"/><path d="m134.516 47.587.048-.005.047.005.01.046v.211l-.014.045-.05.006-.045-.009-.006-.042v-.223l.01-.034m.244 0 .043-.005.048.005.009.046v.222l-.01.034-.042.006-.05-.009-.007-.054v-.205l.01-.04m.244 0 .042-.005.048.005.01.046v.222l-.01.034-.042.006-.051-.009-.006-.054v-.205l.009-.04m.24 0 .047-.005.048.005.01.046v.21l-.014.046-.05.006-.045-.01-.006-.041v-.223l.01-.034m.244 0 .048-.005.048.005.01.046v.21l-.014.046-.05.006-.045-.01-.006-.041v-.223l.009-.034m.245 0 .042-.005.048.005.009.046v.222l-.009.034-.042.006-.051-.01-.006-.053v-.205l.009-.04" style="fill:none;stroke:#090909;stroke-width:.0320146;stroke-dasharray:none" transform="translate(-31.925 -11.389)scale(1.23595)"/></svg>