<svg viewBox="117.692 46.018 4.479 4.479" width="4.479" height="4.479" xmlns="http://www.w3.org/2000/svg"><g transform="rotate(45 115.135 50.706)scale(1.03475)"><path style="fill:none;stroke:#000;stroke-width:.120731;stroke-dasharray:none" d="M114.222 43.185a.07.07 0 0 0-.07.072v.074h-.132a.13.13 0 0 0-.13-.13h-1.912a.13.13 0 0 0-.13.13v.277a.13.13 0 0 0 .13.131h1.911a.13.13 0 0 0 .13-.127h.133v.068c0 .055.06.09.108.062l.285-.164a.127.127 0 0 0 0-.22l-.285-.164c-.01-.01-.026-.006-.039-.01z"/><rect style="fill:#000;stroke:#000;stroke-width:.0565372;-inkscape-stroke:none" width="1.079" height=".982" x="111.467" y="42.978" ry=".07"/><rect style="fill:#000;stroke:#000;stroke-width:.0565372;-inkscape-stroke:none" width=".138" height=".507" x="113.598" y="43.206" ry=".036"/></g><g transform="rotate(45 113.655 50.12)scale(1.03475)"><path style="fill:none;stroke:#000;stroke-width:.120731;stroke-dasharray:none" d="M114.222 43.185a.07.07 0 0 0-.07.072v.074h-.132a.13.13 0 0 0-.13-.13h-1.912a.13.13 0 0 0-.13.13v.277a.13.13 0 0 0 .13.131h1.911a.13.13 0 0 0 .13-.127h.133v.068c0 .055.06.09.108.062l.285-.164a.127.127 0 0 0 0-.22l-.285-.164c-.01-.01-.026-.006-.039-.01z"/><rect style="fill:#000;stroke:#000;stroke-width:.0565372;-inkscape-stroke:none" width="1.079" height=".982" x="111.467" y="42.978" ry=".07"/><rect style="fill:#000;stroke:#000;stroke-width:.0565372;-inkscape-stroke:none" width=".138" height=".507" x="113.598" y="43.206" ry=".036"/></g><path style="fill:none;stroke:#000;stroke-width:.321;stroke-dasharray:none" d="M118.406 47.64c0-.223-.129-.59.029-.747.157-.158.52-.03.742-.03" transform="translate(.12 .024)"/></svg>