<svg viewBox="127.814 46.018 4.479 4.479" width="4.479" height="4.479" xmlns="http://www.w3.org/2000/svg"><g transform="translate(.136 .068)"><path style="fill:none;stroke:#000;stroke-width:.14971;stroke-dasharray:none" d="M131.352 49.146a.09.09 0 0 0-.125.002l-.065.065-.048-.048-.068-.067a.16.16 0 0 0 0-.229l-1.675-1.675a.16.16 0 0 0-.23 0l-.242.242a.16.16 0 0 0 0 .23l1.675 1.675a.16.16 0 0 0 .227.003l.067.067.048.048-.06.06a.09.09 0 0 0 .041.15l.393.105a.157.157 0 0 0 .193-.192l-.106-.393c0-.018-.017-.029-.025-.043z"/><rect style="fill:#000;stroke:#000;stroke-width:.070108;-inkscape-stroke:none" width="1.339" height="1.217" x="124.216" y="-58.385" ry=".086" transform="rotate(45)"/><rect style="fill:#000;stroke:#000;stroke-width:.070108;-inkscape-stroke:none" width=".171" height=".629" x="126.942" y="-58.102" ry=".045" transform="rotate(45)"/><rect style="fill:#000;stroke:#000;stroke-width:.070108;-inkscape-stroke:none" width=".171" height=".629" x="126.388" y="-58.102" ry=".045" transform="rotate(45)"/></g></svg>