<svg viewBox="122.753 46.018 4.479 4.479" width="4.479" height="4.479" xmlns="http://www.w3.org/2000/svg"><g transform="translate(-.034 -.034)"><path style="fill:none;stroke:#000;stroke-width:.14971;stroke-dasharray:none" d="M126.5 49.274a.09.09 0 0 0-.124.002l-.065.065-.049-.049-.067-.067a.16.16 0 0 0 0-.228l-1.676-1.676a.16.16 0 0 0-.229 0l-.242.243a.16.16 0 0 0 0 .229l1.675 1.675a.16.16 0 0 0 .226.003l.067.067.049.049-.06.06a.09.09 0 0 0 .04.15l.394.105a.157.157 0 0 0 .193-.192l-.106-.394q-.011-.022-.025-.042z"/><rect style="fill:#000;stroke:#000;stroke-width:.070108;-inkscape-stroke:none" width="1.339" height="1.217" x="120.876" y="-54.864" ry=".086" transform="rotate(45)"/><rect style="fill:#000;stroke:#000;stroke-width:.070108;-inkscape-stroke:none" width=".171" height=".629" x="123.601" y="-54.581" ry=".045" transform="rotate(45)"/></g></svg>