<svg xmlns="http://www.w3.org/2000/svg" width="1280" height="720" viewBox="0 0 1280 720" role="img" aria-label="View and measurement tools screenshot mock">
  <rect width="1280" height="720" fill="#f1f5f9"/>
  <rect x="52" y="40" width="1176" height="640" rx="18" fill="#ffffff" stroke="#cbd5e1"/>
  <rect x="88" y="82" width="900" height="556" rx="12" fill="#e2e8f0" stroke="#94a3b8"/>
  <rect x="1012" y="82" width="180" height="556" rx="12" fill="#f8fafc" stroke="#cbd5e1"/>
  <rect x="1040" y="118" width="124" height="44" rx="10" fill="#dbeafe"/>
  <rect x="1040" y="172" width="124" height="44" rx="10" fill="#dbeafe"/>
  <rect x="1040" y="226" width="124" height="44" rx="10" fill="#dbeafe"/>
  <rect x="1040" y="296" width="124" height="44" rx="10" fill="#c7d2fe"/>
  <rect x="1040" y="350" width="124" height="44" rx="10" fill="#c7d2fe"/>
  <rect x="1040" y="404" width="124" height="44" rx="10" fill="#c7d2fe"/>
  <rect x="1040" y="458" width="124" height="44" rx="10" fill="#c7d2fe"/>
  <rect x="290" y="214" width="420" height="220" fill="none" stroke="#0ea5e9" stroke-width="4" stroke-dasharray="10 8"/>
  <text x="1028" y="72" font-family="Arial, sans-serif" font-size="22" fill="#1e293b" font-weight="700">Tools</text>
</svg>